<?xml version="1.0" encoding="UTF-8" standalone="no"?>
<svg
   width="64"
   height="64"
   fill="currentColor"
   class="bi bi-terminal"
   viewBox="0 0 64 64"
   version="1.1"
   id="svg2"
   sodipodi:docname="terminal.svg"
   xmlns:inkscape="http://www.inkscape.org/namespaces/inkscape"
   xmlns:sodipodi="http://sodipodi.sourceforge.net/DTD/sodipodi-0.dtd"
   xmlns="http://www.w3.org/2000/svg"
   xmlns:svg="http://www.w3.org/2000/svg">
  <defs
     id="defs2" />
  <sodipodi:namedview
     id="namedview2"
     pagecolor="#505050"
     bordercolor="#ffffff"
     borderopacity="1"
     inkscape:showpageshadow="0"
     inkscape:pageopacity="0"
     inkscape:pagecheckerboard="1"
     inkscape:deskcolor="#505050" />
  <path
     d="m 26,35 a 1.5,1.5 0 0 1 1.5,-1.5 h 9 a 1.5,1.5 0 0 1 0,3 h -9 A 1.5,1.5 0 0 1 26,35 M 19.562,20.438 a 1.5018948,1.5018948 0 1 0 -2.124,2.124 l 4.941,4.938 -4.941,4.938 a 1.5018948,1.5018948 0 1 0 2.124,2.124 l 6,-6 a 1.5,1.5 0 0 0 0,-2.124 z"
     id="path1"
     style="fill:#ffffff;fill-opacity:1;stroke-width:0.999999" />
  <path
     d="m 14,11 a 6,6 0 0 0 -6,6 v 30 a 6,6 0 0 0 6,6 h 36 a 6,6 0 0 0 6,-6 V 17 a 6,6 0 0 0 -6,-6 z m 36,3 a 3,3 0 0 1 3,3 v 30 a 3,3 0 0 1 -3,3 H 14 A 3,3 0 0 1 11,47 V 17 a 3,3 0 0 1 3,-3 z"
     id="path2"
     style="fill:#ffffff;fill-opacity:1;stroke-width:0.999999" />
</svg>
