<?xml version="1.0" encoding="UTF-8" standalone="no"?>
<svg
   width="64"
   height="64"
   fill="currentColor"
   class="bi bi-trash-fill"
   viewBox="0 0 64 64"
   version="1.1"
   id="svg1"
   xmlns="http://www.w3.org/2000/svg"
   xmlns:svg="http://www.w3.org/2000/svg">
  <defs
     id="defs1" />
  <path
     d="M 20.283334,18.133334 A 2.1333333,2.1333333 0 0 0 18.15,20.266667 V 22.4 a 2.1333333,2.1333333 0 0 0 2.133334,2.133333 H 21.35 v 19.2 A 4.2666666,4.2666666 0 0 0 25.616666,48 h 12.800001 a 4.2666666,4.2666666 0 0 0 4.266666,-4.266667 v -19.2 h 1.066666 A 2.1333333,2.1333333 0 0 0 45.883333,22.4 V 20.266667 A 2.1333333,2.1333333 0 0 0 43.749999,18.133334 H 36.283333 A 2.1333333,2.1333333 0 0 0 34.15,16 H 29.883333 A 2.1333333,2.1333333 0 0 0 27.75,18.133334 Z m 6.399999,8.533333 A 1.0666666,1.0666666 0 0 1 27.75,27.733333 v 14.933333 a 1.0666672,1.0666672 0 0 1 -2.133334,0 V 27.733333 a 1.0666666,1.0666666 0 0 1 1.066667,-1.066666 m 5.333334,0 a 1.0666666,1.0666666 0 0 1 1.066666,1.066666 v 14.933333 a 1.0666667,1.0666667 0 0 1 -2.133333,0 V 27.733333 a 1.0666666,1.0666666 0 0 1 1.066667,-1.066666 m 6.4,1.066666 v 14.933333 a 1.0666672,1.0666672 0 0 1 -2.133334,0 V 27.733333 a 1.0666672,1.0666672 0 0 1 2.133334,0"
     id="path1"
     style="fill:#ffffff;fill-opacity:1;stroke-width:1" />
</svg>
