<?xml version="1.0" encoding="UTF-8" standalone="no"?>
<svg
   width="64"
   height="64"
   fill="currentColor"
   class="bi bi-keyboard"
   viewBox="0 0 64 64"
   version="1.1"
   id="svg2"
   sodipodi:docname="keyboard.svg"
   xmlns:inkscape="http://www.inkscape.org/namespaces/inkscape"
   xmlns:sodipodi="http://sodipodi.sourceforge.net/DTD/sodipodi-0.dtd"
   xmlns="http://www.w3.org/2000/svg"
   xmlns:svg="http://www.w3.org/2000/svg">
  <defs
     id="defs2" />
  <sodipodi:namedview
     id="namedview2"
     pagecolor="#505050"
     bordercolor="#ffffff"
     borderopacity="1"
     inkscape:showpageshadow="0"
     inkscape:pageopacity="0"
     inkscape:pagecheckerboard="1"
     inkscape:deskcolor="#505050" />
  <path
     d="m 50,21.5 a 3,3 0 0 1 3,3 v 15 a 3,3 0 0 1 -3,3 H 14 a 3,3 0 0 1 -3,-3 v -15 a 3,3 0 0 1 3,-3 z m -36,-3 a 6,6 0 0 0 -6,6 v 15 a 6,6 0 0 0 6,6 h 36 a 6,6 0 0 0 6,-6 v -15 a 6,6 0 0 0 -6,-6 z"
     id="path1"
     style="fill:#ffffff;fill-opacity:1;stroke-width:1" />
  <path
     d="m 47,37.25 a 0.75,0.75 0 0 1 0.75,-0.75 h 1.5 A 0.75,0.75 0 0 1 50,37.25 v 1.5 a 0.75,0.75 0 0 1 -0.75,0.75 h -1.5 A 0.75,0.75 0 0 1 47,38.75 Z m 0,-6 a 0.75,0.75 0 0 1 0.75,-0.75 h 1.5 A 0.75,0.75 0 0 1 50,31.25 v 1.5 a 0.75,0.75 0 0 1 -0.75,0.75 h -1.5 A 0.75,0.75 0 0 1 47,32.75 Z m -15,0 a 0.75,0.75 0 0 1 0.75,-0.75 h 1.5 A 0.75,0.75 0 0 1 35,31.25 v 1.5 a 0.75,0.75 0 0 1 -0.75,0.75 h -1.5 A 0.75,0.75 0 0 1 32,32.75 Z m 6,0 a 0.75,0.75 0 0 1 0.75,-0.75 h 4.5 A 0.75,0.75 0 0 1 44,31.25 v 1.5 a 0.75,0.75 0 0 1 -0.75,0.75 h -4.5 A 0.75,0.75 0 0 1 38,32.75 Z m 3,6 a 0.75,0.75 0 0 1 0.75,-0.75 h 1.5 A 0.75,0.75 0 0 1 44,37.25 v 1.5 a 0.75,0.75 0 0 1 -0.75,0.75 h -1.5 A 0.75,0.75 0 0 1 41,38.75 Z m -15,-6 a 0.75,0.75 0 0 1 0.75,-0.75 h 1.5 A 0.75,0.75 0 0 1 29,31.25 v 1.5 a 0.75,0.75 0 0 1 -0.75,0.75 h -1.5 A 0.75,0.75 0 0 1 26,32.75 Z m -6,0 a 0.75,0.75 0 0 1 0.75,-0.75 h 1.5 A 0.75,0.75 0 0 1 23,31.25 v 1.5 a 0.75,0.75 0 0 1 -0.75,0.75 h -1.5 A 0.75,0.75 0 0 1 20,32.75 Z m -6,0 a 0.75,0.75 0 0 1 0.75,-0.75 h 1.5 A 0.75,0.75 0 0 1 17,31.25 v 1.5 a 0.75,0.75 0 0 1 -0.75,0.75 h -1.5 A 0.75,0.75 0 0 1 14,32.75 Z m 33,-6 a 0.75,0.75 0 0 1 0.75,-0.75 h 1.5 A 0.75,0.75 0 0 1 50,25.25 v 1.5 a 0.75,0.75 0 0 1 -0.75,0.75 h -1.5 A 0.75,0.75 0 0 1 47,26.75 Z m -6,0 a 0.75,0.75 0 0 1 0.75,-0.75 h 1.5 A 0.75,0.75 0 0 1 44,25.25 v 1.5 a 0.75,0.75 0 0 1 -0.75,0.75 h -1.5 A 0.75,0.75 0 0 1 41,26.75 Z m -6,0 a 0.75,0.75 0 0 1 0.75,-0.75 h 1.5 A 0.75,0.75 0 0 1 38,25.25 v 1.5 a 0.75,0.75 0 0 1 -0.75,0.75 h -1.5 A 0.75,0.75 0 0 1 35,26.75 Z m -6,0 a 0.75,0.75 0 0 1 0.75,-0.75 h 1.5 A 0.75,0.75 0 0 1 32,25.25 v 1.5 a 0.75,0.75 0 0 1 -0.75,0.75 h -1.5 A 0.75,0.75 0 0 1 29,26.75 Z m -6,0 a 0.75,0.75 0 0 1 0.75,-0.75 h 1.5 A 0.75,0.75 0 0 1 26,25.25 v 1.5 a 0.75,0.75 0 0 1 -0.75,0.75 h -1.5 A 0.75,0.75 0 0 1 23,26.75 Z m -9,0 a 0.75,0.75 0 0 1 0.75,-0.75 h 4.5 A 0.75,0.75 0 0 1 20,25.25 v 1.5 a 0.75,0.75 0 0 1 -0.75,0.75 h -4.5 A 0.75,0.75 0 0 1 14,26.75 Z m 0,12 a 0.75,0.75 0 0 1 0.75,-0.75 h 1.5 A 0.75,0.75 0 0 1 17,37.25 v 1.5 a 0.75,0.75 0 0 1 -0.75,0.75 h -1.5 A 0.75,0.75 0 0 1 14,38.75 Z m 6,0 a 0.75,0.75 0 0 1 0.75,-0.75 h 16.5 A 0.75,0.75 0 0 1 38,37.25 v 1.5 A 0.75,0.75 0 0 1 37.25,39.5 H 20.75 A 0.75,0.75 0 0 1 20,38.75 Z"
     id="path2"
     style="fill:#ffffff;fill-opacity:1;stroke-width:1" />
</svg>
