<?xml version="1.0" encoding="UTF-8" standalone="no"?>
<svg
   width="64"
   height="64"
   fill="currentColor"
   class="bi bi-layers"
   viewBox="0 0 64 64"
   version="1.1"
   id="svg1"
   sodipodi:docname="layer.svg"
   inkscape:export-filename="layer.svg"
   inkscape:export-xdpi="96"
   inkscape:export-ydpi="96"
   inkscape:version="1.3.2 (091e20e, 2023-11-25, custom)"
   xmlns:inkscape="http://www.inkscape.org/namespaces/inkscape"
   xmlns:sodipodi="http://sodipodi.sourceforge.net/DTD/sodipodi-0.dtd"
   xmlns="http://www.w3.org/2000/svg"
   xmlns:svg="http://www.w3.org/2000/svg">
  <defs
     id="defs1" />
  <sodipodi:namedview
     id="namedview1"
     pagecolor="#505050"
     bordercolor="#ffffff"
     borderopacity="1"
     inkscape:showpageshadow="0"
     inkscape:pageopacity="0"
     inkscape:pagecheckerboard="1"
     inkscape:deskcolor="#505050"
     inkscape:zoom="8.9824658"
     inkscape:cx="32.229457"
     inkscape:cy="29.668913"
     inkscape:window-width="1920"
     inkscape:window-height="1009"
     inkscape:window-x="1912"
     inkscape:window-y="-5"
     inkscape:window-maximized="1"
     inkscape:current-layer="svg1" />
  <path
     d="m 32.706511,12.676003 a 1.5000234,1.5000234 0 0 0 -1.410022,0 L 8.7961381,24.676191 a 1.5000234,1.5000234 0 0 0 0,2.646041 l 8.7691369,4.677073 -8.772137,4.677073 a 1.5000234,1.5000234 0 0 0 0,2.646041 l 22.500351,12.000187 a 1.5000234,1.5000234 0 0 0 1.410022,0 L 55.203862,39.322419 a 1.5000234,1.5000234 0 0 0 0,-2.646041 l -8.763137,-4.677073 8.766137,-4.677073 a 1.5000234,1.5000234 0 0 0 0,-2.646041 z M 43.251676,33.700331 51.315801,37.999398 32.0015,48.298559 12.687199,37.999398 l 8.064126,-4.299067 10.545164,5.622088 a 1.5000234,1.5000234 0 0 0 1.410022,0 z M 32.0015,36.298372 12.687199,25.999211 32.0015,15.70005 51.315801,25.999211 Z"
     id="path1"
     style="fill:#ffffff;fill-opacity:1;stroke-width:1" />
</svg>
