<?xml version="1.0" encoding="UTF-8" standalone="no"?>
<svg
   width="96"
   height="96"
   fill="currentColor"
   class="bi bi-moon-stars-fill"
   viewBox="0 0 96 96"
   version="1.1"
   id="svg2"
   sodipodi:docname="moon-stars-fill.svg"
   inkscape:export-filename="..\OneDrive\Dokumente\Github Development\Macroboard-Driver\app\data\sprites\moon.svg"
   inkscape:export-xdpi="576"
   inkscape:export-ydpi="576"
   xmlns:inkscape="http://www.inkscape.org/namespaces/inkscape"
   xmlns:sodipodi="http://sodipodi.sourceforge.net/DTD/sodipodi-0.dtd"
   xmlns="http://www.w3.org/2000/svg"
   xmlns:svg="http://www.w3.org/2000/svg">
  <defs
     id="defs2" />
  <sodipodi:namedview
     id="namedview2"
     pagecolor="#505050"
     bordercolor="#ffffff"
     borderopacity="1"
     inkscape:showpageshadow="0"
     inkscape:pageopacity="0"
     inkscape:pagecheckerboard="1"
     inkscape:deskcolor="#505050" />
  <path
     d="m 40.002246,17.111016 a 3.0802883,3.0800463 0 0 1 0.32003,3.432052 28.802696,28.800433 0 0 0 -3.512328,13.840208 c 0,16.084242 13.113227,29.108437 29.274739,29.108437 q 3.168297,-0.004 6.132574,-0.640009 a 3.1602958,3.1600475 0 0 1 3.240304,1.264019 2.9202733,2.9200439 0 0 1 -0.124012,3.572053 33.403126,33.400502 0 0 1 -25.954429,12.312185 C 30.937398,79.999961 16,65.143738 16,46.839463 16,33.063256 24.456792,21.247079 36.497918,16.239003 a 3.0002808,3.0000451 0 0 1 3.504328,0.872013"
     id="path1"
     style="fill:#ebf5ff;fill-opacity:1;stroke-width:1" />
  <path
     d="m 59.180041,28.591189 a 0.86808124,0.86801304 0 0 1 1.648155,0 l 1.548144,4.64807 c 0.692065,2.072031 2.316217,3.696055 4.388411,4.388066 l 4.648435,1.548023 a 0.86808124,0.86801304 0 0 1 0,1.648025 l -4.648435,1.548023 a 6.9206477,6.920104 0 0 0 -4.388411,4.388066 l -1.548144,4.64807 a 0.86808124,0.86801304 0 0 1 -1.648155,0 l -1.548145,-4.64807 a 6.9206477,6.920104 0 0 0 -4.38841,-4.388066 l -4.648435,-1.548023 a 0.86808124,0.86801304 0 0 1 0,-1.648025 l 4.648435,-1.548023 a 6.9206477,6.920104 0 0 0 4.38841,-4.388066 z M 71.45719,16.395006 a 0.58005429,0.58000871 0 0 1 1.096103,0 l 1.032096,3.096046 c 0.460044,1.384021 1.544145,2.468037 2.928275,2.928044 l 3.096289,1.032016 a 0.58005429,0.58000871 0 0 1 0,1.096016 l -3.096289,1.032016 a 4.6404343,4.6400697 0 0 0 -2.928275,2.928044 l -1.032096,3.096046 a 0.58005429,0.58000871 0 0 1 -1.096103,0 L 70.425094,28.507188 A 4.6404343,4.6400697 0 0 0 67.49682,25.579144 l -3.09629,-1.032016 a 0.58005429,0.58000871 0 0 1 0,-1.096016 l 3.09629,-1.032016 c 1.384129,-0.460007 2.468231,-1.544023 2.928274,-2.928044 z"
     id="path2"
     style="fill:#ebf5ff;fill-opacity:1;stroke-width:1" />
</svg>
