<?xml version="1.0" encoding="UTF-8" standalone="no"?>
<svg
   width="64"
   height="64"
   fill="currentColor"
   class="bi bi-mouse2"
   viewBox="0 0 64 64"
   version="1.1"
   id="svg1"
   sodipodi:docname="mouse.svg"
   inkscape:export-filename="mouse.svg"
   inkscape:export-xdpi="96"
   inkscape:export-ydpi="96"
   inkscape:version="1.3.2 (091e20e, 2023-11-25, custom)"
   xmlns:inkscape="http://www.inkscape.org/namespaces/inkscape"
   xmlns:sodipodi="http://sodipodi.sourceforge.net/DTD/sodipodi-0.dtd"
   xmlns="http://www.w3.org/2000/svg"
   xmlns:svg="http://www.w3.org/2000/svg">
  <defs
     id="defs1" />
  <sodipodi:namedview
     id="namedview1"
     pagecolor="#505050"
     bordercolor="#ffffff"
     borderopacity="1"
     inkscape:showpageshadow="0"
     inkscape:pageopacity="0"
     inkscape:pagecheckerboard="1"
     inkscape:deskcolor="#505050"
     inkscape:zoom="8.9824658"
     inkscape:cx="36.01461"
     inkscape:cy="30.336881"
     inkscape:window-width="1920"
     inkscape:window-height="1009"
     inkscape:window-x="1912"
     inkscape:window-y="-5"
     inkscape:window-maximized="1"
     inkscape:current-layer="svg1" />
  <path
     d="M 17,23.564 C 17,15.023 23.66,8 32,8 40.34,8 47,15.026 47,23.564 V 40.439 C 47,48.974 40.34,56 32,56 23.66,56 17,48.974 17,40.436 V 23.567 Z M 30.5,11.099 C 24.623,11.867 20,17.105 20,23.564 V 24.5 h 10.5 z m 3,0 V 24.5 H 44 V 23.561 C 44,17.105 39.377,11.867 33.5,11.099 M 44,27.5 H 20 V 40.439 C 20,47.435 25.43,53 32,53 38.57,53 44,47.435 44,40.436 Z"
     id="path1"
     style="fill:#ffffff;fill-opacity:1;stroke-width:0.999999" />
</svg>
