<?xml version="1.0" encoding="UTF-8" standalone="no"?>
<svg
   width="64"
   height="64"
   fill="currentColor"
   class="bi bi-arrows-move"
   viewBox="0 0 64 64"
   version="1.1"
   id="svg1"
   sodipodi:docname="arrows-move.svg"
   inkscape:export-filename="..\OneDrive\Dokumente\Github Development\Macroboard\app\data\sprites\mouse_move.png"
   inkscape:export-xdpi="96"
   inkscape:export-ydpi="96"
   xmlns:inkscape="http://www.inkscape.org/namespaces/inkscape"
   xmlns:sodipodi="http://sodipodi.sourceforge.net/DTD/sodipodi-0.dtd"
   xmlns="http://www.w3.org/2000/svg"
   xmlns:svg="http://www.w3.org/2000/svg">
  <defs
     id="defs1" />
  <sodipodi:namedview
     id="namedview1"
     pagecolor="#505050"
     bordercolor="#ffffff"
     borderopacity="1"
     inkscape:showpageshadow="0"
     inkscape:pageopacity="0"
     inkscape:pagecheckerboard="1"
     inkscape:deskcolor="#505050" />
  <path
     fill-rule="evenodd"
     d="m 30.938119,8.4406323 a 1.4998324,1.4998324 0 0 1 2.123763,0 l 5.99933,5.9993297 a 1.5017272,1.5017272 0 0 1 -2.123763,2.123763 l -3.437616,-3.440616 v 11.377729 a 1.4998325,1.4998325 0 0 1 -2.999665,0 V 13.123109 l -3.437616,3.440616 A 1.5017272,1.5017272 0 1 1 24.938789,14.439962 Z M 32,37.999329 a 1.4998324,1.4998324 0 0 1 1.499833,1.499833 V 50.87689 l 3.437616,-3.440615 a 1.5017272,1.5017272 0 0 1 2.123763,2.123763 l -5.99933,5.999329 a 1.4998324,1.4998324 0 0 1 -2.123763,0 l -5.99933,-5.999329 a 1.5017272,1.5017272 0 0 1 2.123763,-2.123763 l 3.437616,3.440615 V 39.499162 A 1.4998324,1.4998324 0 0 1 32,37.999329 M 8.4406323,33.061881 a 1.4998324,1.4998324 0 0 1 0,-2.123763 l 5.9993297,-5.999329 a 1.5017272,1.5017273 0 1 1 2.123763,2.123763 l -3.440616,3.437615 h 11.377729 a 1.4998325,1.4998325 0 0 1 0,2.999665 H 13.123109 l 3.440616,3.437616 a 1.5017272,1.5017273 0 0 1 -2.123763,2.123763 z M 37.99933,32 a 1.4998324,1.4998324 0 0 1 1.499833,-1.499833 h 11.377729 l -3.440616,-3.437615 a 1.5017272,1.5017272 0 0 1 2.123763,-2.123763 l 5.99933,5.999329 a 1.4998324,1.4998324 0 0 1 0,2.123763 l -5.99933,5.99933 a 1.5017272,1.5017272 0 0 1 -2.123763,-2.123763 l 3.440616,-3.437616 H 39.499163 A 1.4998324,1.4998324 0 0 1 37.99933,32"
     id="path1"
     style="fill:#ffffff;fill-opacity:1;stroke-width:1" />
</svg>
