<?xml version="1.0" encoding="UTF-8" standalone="no"?>
<svg
   width="96"
   height="112"
   fill="currentColor"
   class="bi bi-file-plus-fill"
   viewBox="0 0 96 112"
   version="1.1"
   id="svg1"
   sodipodi:docname="file-plus-fill.svg"
   xmlns:inkscape="http://www.inkscape.org/namespaces/inkscape"
   xmlns:sodipodi="http://sodipodi.sourceforge.net/DTD/sodipodi-0.dtd"
   xmlns="http://www.w3.org/2000/svg"
   xmlns:svg="http://www.w3.org/2000/svg">
  <defs
     id="defs1" />
  <sodipodi:namedview
     id="namedview1"
     pagecolor="#505050"
     bordercolor="#eeeeee"
     borderopacity="1"
     inkscape:showpageshadow="0"
     inkscape:pageopacity="0"
     inkscape:pagecheckerboard="0"
     inkscape:deskcolor="#505050" />
  <path
     d="M 69.333333,13 H 26.666667 A 10.666667,10.666667 0 0 0 16,23.666667 v 64 A 10.666667,10.666667 0 0 0 26.666667,98.33333 H 69.333333 A 10.666667,10.666667 0 0 0 80,87.666667 v -64 A 10.666667,10.666667 0 0 0 69.333333,13 M 50.666667,45 v 8 h 8 a 2.6666667,2.6666667 0 0 1 0,5.333333 h -8 v 8 a 2.666667,2.666667 0 0 1 -5.333334,0 v -8 h -8 a 2.6666667,2.6666667 0 0 1 0,-5.333333 h 8 v -8 a 2.666667,2.666667 0 0 1 5.333334,0"
     id="path1"
     style="fill:#ebf5ff;fill-opacity:1;stroke-width:5.33333" />
</svg>
