<?xml version="1.0" encoding="UTF-8" standalone="no"?>
<svg
   width="96"
   height="96"
   fill="currentColor"
   class="bi bi-sun-fill"
   viewBox="0 0 96 96"
   version="1.1"
   id="svg1"
   xmlns="http://www.w3.org/2000/svg"
   xmlns:svg="http://www.w3.org/2000/svg">
  <defs
     id="defs1" />
  <path
     d="m 48,64 a 16,16 0 1 0 0,-32 16,16 0 0 0 0,32 m 0,-48 a 2,2 0 0 1 2,2 v 8 a 2,2 0 0 1 -4,0 v -8 a 2,2 0 0 1 2,-2 m 0,52 a 2,2 0 0 1 2,2 v 8 a 2,2 0 0 1 -4,0 v -8 a 2,2 0 0 1 2,-2 M 80,48 a 2,2 0 0 1 -2,2 h -8 a 2,2 0 0 1 0,-4 h 8 a 2,2 0 0 1 2,2 m -52,0 a 2,2 0 0 1 -2,2 h -8 a 2,2 0 0 1 0,-4 h 8 a 2,2 0 0 1 2,2 M 70.628,25.372 a 2,2 0 0 1 0,2.828 l -5.656,5.66 A 2.0011127,2.0011127 0 1 1 62.144,31.028 L 67.8,25.372 a 2,2 0 0 1 2.828,0 M 33.856,62.144 a 2,2 0 0 1 0,2.828 L 28.2,70.628 A 2,2 0 0 1 25.372,67.8 l 5.656,-5.656 a 2,2 0 0 1 2.828,0 m 36.772,8.484 a 2,2 0 0 1 -2.828,0 l -5.656,-5.656 a 2,2 0 0 1 2.828,-2.828 l 5.656,5.656 a 2,2 0 0 1 0,2.828 M 33.856,33.86 a 2,2 0 0 1 -2.828,0 L 25.372,28.2 A 2,2 0 1 1 28.2,25.372 l 5.656,5.656 a 2,2 0 0 1 0,2.832"
     id="path1"
     style="fill:#ebf5ff;fill-opacity:1;stroke-width:1" />
</svg>
