<?xml version="1.0" encoding="UTF-8" standalone="no"?>
<svg
   width="64"
   height="64"
   fill="currentColor"
   class="bi bi-card-text"
   viewBox="0 0 64 64"
   version="1.1"
   id="svg2"
   sodipodi:docname="card-text.svg"
   xmlns:inkscape="http://www.inkscape.org/namespaces/inkscape"
   xmlns:sodipodi="http://sodipodi.sourceforge.net/DTD/sodipodi-0.dtd"
   xmlns="http://www.w3.org/2000/svg"
   xmlns:svg="http://www.w3.org/2000/svg">
  <defs
     id="defs2" />
  <sodipodi:namedview
     id="namedview2"
     pagecolor="#505050"
     bordercolor="#ffffff"
     borderopacity="1"
     inkscape:showpageshadow="0"
     inkscape:pageopacity="0"
     inkscape:pagecheckerboard="1"
     inkscape:deskcolor="#505050" />
  <path
     d="m 51.5,17 a 1.5,1.5 0 0 1 1.5,1.5 v 27 A 1.5,1.5 0 0 1 51.5,47 h -39 A 1.5,1.5 0 0 1 11,45.5 v -27 A 1.5,1.5 0 0 1 12.5,17 Z m -39,-3 A 4.5,4.5 0 0 0 8,18.5 v 27 a 4.5,4.5 0 0 0 4.5,4.5 h 39 A 4.5,4.5 0 0 0 56,45.5 v -27 A 4.5,4.5 0 0 0 51.5,14 Z"
     id="path1"
     style="fill:#ffffff;fill-opacity:1;stroke-width:0.999999" />
  <path
     d="M 17,24.5 A 1.5,1.5 0 0 1 18.5,23 h 27 a 1.5,1.5 0 0 1 0,3 h -27 A 1.5,1.5 0 0 1 17,24.5 m 0,7.5 a 1.5,1.5 0 0 1 1.5,-1.5 h 27 a 1.5,1.5 0 0 1 0,3 h -27 A 1.5,1.5 0 0 1 17,32 m 0,7.5 A 1.5,1.5 0 0 1 18.5,38 h 18 a 1.5,1.5 0 0 1 0,3 h -18 A 1.5,1.5 0 0 1 17,39.5"
     id="path2"
     style="fill:#ffffff;fill-opacity:1;stroke-width:0.999999" />
</svg>
